<svg width="42" height="37" viewBox="0 0 42 37" fill="none" xmlns="http://www.w3.org/2000/svg">
<path d="M21 10.25C22.3571 4.8222 27.4829 2.05071 38.6429 2.00001C38.8213 1.99933 38.998 2.03443 39.163 2.10329C39.328 2.17215 39.4778 2.2734 39.604 2.40122C39.7302 2.52903 39.8301 2.68088 39.8981 2.84801C39.966 3.01514 40.0007 3.19425 40 3.37501V28.125C40 28.4897 39.857 28.8394 39.6025 29.0973C39.348 29.3551 39.0028 29.5 38.6429 29.5C27.7857 29.5 23.5913 31.718 21 35M21 10.25C19.6429 4.8222 14.5171 2.05071 3.35715 2.00001C3.17874 1.99933 3.00196 2.03443 2.837 2.10329C2.67204 2.17215 2.52216 2.2734 2.39601 2.40122C2.26985 2.52903 2.16991 2.68088 2.10195 2.84801C2.03398 3.01514 1.99934 3.19425 2.00001 3.37501V27.9591C2.00001 28.8082 2.51912 29.5 3.35715 29.5C14.2143 29.5 18.424 31.7344 21 35M21 10.25V35" stroke="black" stroke-width="3" stroke-linecap="round" stroke-linejoin="round"/>
</svg>
