<svg width="1439" height="322" viewBox="0 0 1439 322" fill="none" xmlns="http://www.w3.org/2000/svg">
<path d="M0 321C479.321 321 958.641 321 1437.96 321" stroke="url(#paint0_linear_222_1002)" stroke-opacity="0.4" stroke-miterlimit="10"/>
<path d="M0 312.023C242.716 312.09 485.312 310.485 727.968 308.669C832.959 307.879 938.669 308.138 1043.65 309.803C1175.06 311.885 1306.54 309.924 1437.92 312.023" stroke="url(#paint1_linear_222_1002)" stroke-opacity="0.4" stroke-miterlimit="10"/>
<path d="M0 303.179C68.7725 303.179 137.565 303.499 206.328 303.342C267.78 303.203 329.093 300.193 390.526 299.674C504.964 298.709 619.382 299.831 733.81 298.691C835.376 297.677 937.99 294.992 1039.49 299.089C1098.64 301.502 1157.19 302.6 1216.4 303.595C1290.29 304.838 1364.1 301.466 1437.96 303.179" stroke="url(#paint2_linear_222_1002)" stroke-opacity="0.4" stroke-miterlimit="10"/>
<path d="M0 294.455C67.7839 294.455 135.748 295.143 203.512 294.401C267.191 293.701 330.501 288.796 394.131 287.535C508.789 285.261 622.547 291.758 737.085 290.6C837.872 289.599 937.231 281.466 1038.13 288.742C1097.1 292.995 1154.25 296.325 1213.66 297.297C1288.55 298.503 1363.08 292.633 1437.96 294.455" stroke="url(#paint3_linear_222_1002)" stroke-opacity="0.4" stroke-miterlimit="10"/>
<path d="M0 285.9C66.5557 285.9 133.601 286.998 200.106 285.484C266.612 283.97 332.169 277.002 398.475 274.752C458.75 272.706 518.175 273.255 578.13 277.708C631.864 281.702 684.06 284.585 738.233 284.151C785.716 283.765 830.203 279.409 877.097 275.349C930.761 270.697 986.012 272.869 1039.18 278.794C1097.69 285.321 1152.89 291.565 1212.64 292.277C1288.01 293.182 1362.54 284.338 1437.96 285.9" stroke="url(#paint4_linear_222_1002)" stroke-opacity="0.4" stroke-miterlimit="10"/>
<path d="M0 277.467C65.1177 277.467 131.224 278.945 196.232 276.58C265.693 274.058 333.977 264.924 403.288 261.498C462.799 258.517 522.708 260.56 581.286 267.567C633.582 273.732 684.14 279.24 737.594 278.987C787.094 278.752 831.881 271.18 879.933 265.057C934.475 258.107 988.449 260.744 1042.16 269.171C1099.73 278.221 1152.88 287.97 1213.04 288.229C1288.54 288.561 1362.33 276.453 1437.96 277.473" stroke="url(#paint5_linear_222_1002)" stroke-opacity="0.4" stroke-miterlimit="10"/>
<path d="M0 269.165C63.5799 269.129 128.718 270.975 192.078 267.748C264.815 264.074 335.874 252.738 408.341 248.002C469.155 244.032 525.355 247.725 584.012 257.697C634.231 266.24 682.872 274.794 735.547 274.812C787.633 274.812 833.968 263.44 883.398 255.139C939.708 245.685 991.634 248.436 1046.66 259.857C1102.66 271.476 1154.07 285.195 1214.57 284.893C1289.96 284.483 1362.36 268.888 1437.96 269.165" stroke="url(#paint6_linear_222_1002)" stroke-opacity="0.4" stroke-miterlimit="10"/>
<path d="M0 260.997C61.9721 260.942 126.131 262.994 187.734 259.024C263.806 254.125 337.522 240.599 413.324 234.494C474.987 229.529 528.511 234.838 586.219 248.122C633.831 259.084 680.595 270.963 732.412 271.337C787.174 271.735 836.544 256.116 887.192 245.601C945.679 233.456 995.619 236.038 1052.14 250.837C1105.96 264.93 1156.15 283.023 1216.9 282.009C1292.03 280.754 1362.52 261.576 1437.94 260.997" stroke="url(#paint7_linear_222_1002)" stroke-opacity="0.4" stroke-miterlimit="10"/>
<path d="M0 252.961C60.3844 252.888 123.545 255.072 183.48 250.445C262.807 244.322 339.189 228.672 418.147 221.204C481.058 215.249 531.546 222.066 588.036 238.85C632.713 252.122 677.589 267.452 728.687 268.26C786.126 269.159 839.46 248.87 891.276 236.4C918.418 229.903 947.027 223.816 976.616 225.215C1005.57 226.591 1033 233.957 1058.32 242.108C1109.37 258.499 1159.1 281.062 1219.84 279.337C1294.63 277.207 1362.77 254.457 1437.97 252.979" stroke="url(#paint8_linear_222_1002)" stroke-opacity="0.4" stroke-miterlimit="10"/>
<path d="M0.0493164 245.064C58.9658 244.973 121.098 247.211 179.395 242.047C261.748 234.772 340.517 217.101 422.401 208.341C486.749 201.452 534.322 209.65 589.284 229.891C630.955 245.239 673.954 263.995 724.592 265.268C784.507 266.77 842.425 241.709 895.23 227.526C922.891 220.093 953.398 212.257 984.294 213.982C1013.25 215.599 1040.38 224.431 1064.6 233.589C1112.88 251.857 1162.1 278.975 1223 276.555C1297.47 273.587 1362.98 247.38 1437.98 245.064" stroke="url(#paint9_linear_222_1002)" stroke-opacity="0.4" stroke-miterlimit="10"/>
<path d="M0.0600586 237.306C57.5685 237.197 118.782 239.435 175.591 233.891C260.631 225.584 341.516 206.049 425.936 196.119C458.081 192.342 488.548 190.158 520.033 196.783C545.687 202.182 568.255 211.66 590.024 221.24C628.968 238.367 670.08 260.333 720.599 262.053C782.711 264.17 845.282 234.567 898.946 218.935C927.086 210.737 959.47 201.241 991.545 203.25C1020.63 205.06 1047.41 215.237 1070.58 225.288C1116.3 245.1 1164.93 276.459 1226.15 273.425C1300.36 269.739 1363.15 240.286 1438.02 237.276" stroke="url(#paint10_linear_222_1002)" stroke-opacity="0.4" stroke-miterlimit="10"/>
<path d="M0.0698242 229.674C56.37 229.559 116.754 231.785 172.256 225.988C259.452 216.878 341.875 195.666 428.423 184.801C460.677 180.753 491.054 178.243 522.379 185.76C547.793 191.896 569.453 202.423 590.163 212.945C626.821 231.544 666.215 256.267 716.984 258.348C749.428 259.682 782.051 249.456 810.072 240.799C841.157 231.194 871.045 220.25 902.121 210.634C930.681 201.802 964.632 190.967 997.785 193.229C1027.08 195.226 1053.44 206.441 1075.78 217.24C1119.4 238.355 1167.12 273.262 1228.93 269.726C1303 265.503 1363.17 233.119 1438.03 229.65" stroke="url(#paint11_linear_222_1002)" stroke-opacity="0.4" stroke-miterlimit="10"/>
<path d="M0.079834 222.181C55.3715 222.066 115.117 224.299 169.55 218.392C258.284 208.77 341.666 186.11 429.661 174.569C461.765 170.346 492.372 167.65 523.378 175.703C548.762 182.297 569.772 193.73 589.734 204.975C624.864 224.757 662.77 251.531 714.158 253.842C747.49 255.326 781.063 244.249 809.522 235.091C841.647 224.745 872.433 212.969 904.558 202.61C933.517 193.265 968.467 181.58 1002.51 183.963C1032.12 186.038 1058.02 197.953 1079.76 209.373C1122.03 231.568 1168.28 268.978 1231.08 265.208C1305.16 260.761 1363.03 225.777 1438.04 222.205" stroke="url(#paint12_linear_222_1002)" stroke-opacity="0.4" stroke-miterlimit="10"/>
<path d="M0.0998535 214.821C54.6126 214.724 113.988 216.999 167.622 211.141C257.105 201.368 340.717 177.519 429.391 165.665C461.056 161.442 492.232 158.691 522.799 166.799C548.393 173.586 569.113 185.634 588.705 197.356C623.276 218.073 660.064 245.921 712.53 248.165C746.602 249.625 780.264 238.434 809.123 228.86C841.926 218 873.282 205.621 906.075 194.749C935.404 185.024 970.504 173.152 1005.24 175.517C1035.2 177.556 1060.67 189.688 1082.14 201.597C1124.08 224.854 1168.12 263.211 1232.39 259.477C1306.66 255.163 1362.78 218.024 1438.1 214.833" stroke="url(#paint13_linear_222_1002)" stroke-opacity="0.4" stroke-miterlimit="10"/>
<path d="M0.109863 207.581C54.4229 207.376 113.609 209.934 167.013 203.962C255.887 194.001 338.43 169.441 426.406 157.309C457.981 152.959 489.137 150.353 519.683 158.365C545.646 165.188 566.777 177.381 586.658 189.247C621.868 210.266 659.046 238.47 712.2 241.1C746.512 242.796 779.974 231.743 808.963 222.018C841.817 210.99 873.112 198.369 905.956 187.335C935.424 177.429 970.344 165.719 1005.34 168.253C1035.5 170.437 1060.82 182.593 1082.33 194.635C1124.44 218.217 1167.64 256.068 1232.42 252.551C1306.9 248.521 1362.44 210.369 1438.07 207.581" stroke="url(#paint14_linear_222_1002)" stroke-opacity="0.4" stroke-miterlimit="10"/>
<path d="M0.119629 200.505C54.6623 200.13 113.669 203.358 167.263 196.969C254.559 186.562 335.245 161.598 421.612 149.038C453.567 144.386 483.904 141.967 514.89 150.033C541.322 156.905 563.201 168.971 583.812 180.735C620.191 201.524 658.936 230.012 712.09 233.601C746.192 235.906 779.774 224.823 808.514 215.104C840.968 204.13 871.794 191.497 904.238 180.511C933.646 170.551 968.567 158.932 1003.52 161.942C1033.58 164.53 1059.27 176.862 1081.08 188.771C1123.41 211.877 1167.86 249.015 1231.86 245.601C1306.52 241.613 1362.24 203.243 1438.05 200.505" stroke="url(#paint15_linear_222_1002)" stroke-opacity="0.4" stroke-miterlimit="10"/>
<path d="M0.139893 193.549C54.9921 193.102 113.839 197.229 167.762 190.466C253.281 179.739 331.86 154.449 416.41 141.599C448.634 136.688 478.262 134.498 509.598 142.462C536.44 149.285 559.197 161.037 580.577 172.711C618.174 193.223 658.706 221.608 711.811 226.066C745.603 228.907 778.926 218.054 807.405 208.377C839.31 197.518 869.487 184.964 901.372 174.11C930.691 164.132 965.282 152.844 1000.07 156.283C1030.17 159.263 1056.31 171.649 1078.61 183.431C1121.5 206.055 1167.42 242.264 1230.93 238.898C1305.91 234.928 1361.94 196.312 1438.08 193.585" stroke="url(#paint16_linear_222_1002)" stroke-opacity="0.4" stroke-miterlimit="10"/>
<path d="M0.159668 186.726C55.3914 186.297 114.208 191.516 168.511 184.409C252.073 173.483 328.364 147.934 410.927 134.861C443.282 129.739 472.35 127.814 503.946 135.549C531.267 142.233 554.873 153.647 577.082 165.11C616.246 185.254 658.197 213.228 711.451 218.507C744.844 221.813 777.578 211.43 805.778 201.82C836.983 191.178 866.392 178.732 897.578 168.078C926.786 158.094 960.708 147.367 995.289 151.186C1025.53 154.534 1052.21 166.871 1075.18 178.491C1118.92 200.613 1166.48 235.713 1229.65 232.365C1305.09 228.365 1361.55 189.489 1438.15 186.744" stroke="url(#paint17_linear_222_1002)" stroke-opacity="0.4" stroke-miterlimit="10"/>
<path d="M0.169678 180.035C55.8507 179.697 114.647 186.171 169.44 178.756C250.904 167.734 324.77 141.955 405.205 128.81C437.54 123.513 466.209 121.866 497.964 129.262C525.775 135.741 550.21 146.758 573.327 157.87C614.269 177.556 657.498 204.86 710.952 210.899C775.461 218.193 840.648 180.234 892.924 162.341C922.023 152.374 955.026 142.39 989.307 146.57C1019.78 150.293 1047.03 162.509 1070.78 173.954C1115.64 195.558 1164.97 229.402 1227.98 226.036C1303.98 221.982 1360.98 182.822 1438.13 180.035" stroke="url(#paint18_linear_222_1002)" stroke-opacity="0.4" stroke-miterlimit="10"/>
<path d="M0.189697 173.483C56.3601 173.296 115.167 181.157 170.528 173.483C249.806 162.455 321.125 136.556 399.324 123.368C431.548 117.938 459.938 116.587 491.783 123.555C520.103 129.762 545.387 140.29 569.413 151.053C612.132 170.177 656.649 196.571 710.373 203.358C773.903 211.37 836.284 174.509 887.592 156.905C915.961 147.185 949.035 137.388 982.377 142.395C1013.33 147.041 1040.6 158.304 1065.71 169.767C1111.85 190.822 1163.08 223.297 1226.09 219.894C1302.74 215.762 1360.35 176.306 1438.15 173.441" stroke="url(#paint19_linear_222_1002)" stroke-opacity="0.4" stroke-miterlimit="10"/>
<path d="M0.209717 167.058C56.9093 167.058 115.776 176.428 171.757 168.47C248.777 157.52 317.48 131.512 393.372 118.397C525.186 95.5986 593.948 179.764 709.734 195.872C772.145 204.565 831.371 169.031 881.75 151.783C909.99 142.13 941.785 133.34 974.708 138.631C1006.05 143.669 1033.96 154.685 1060.08 165.93C1107.66 186.442 1160.87 217.439 1224.01 213.982C1301.38 209.759 1359.66 169.996 1438.18 167.058" stroke="url(#paint20_linear_222_1002)" stroke-opacity="0.4" stroke-miterlimit="10"/>
<path d="M0.229736 160.772C57.4786 161.025 116.445 171.933 173.095 163.74C247.819 152.935 313.895 126.867 387.421 113.866C516.508 91.0495 595.126 171.179 709.045 188.439C770.378 197.742 826.049 163.782 875.509 146.866C903.629 137.25 934.036 129.618 966.49 135.15C998.255 140.58 1026.87 151.318 1054.04 162.328C1103.15 182.237 1158.39 211.744 1221.8 208.209C1299.92 203.859 1358.93 163.806 1438.21 160.772" stroke="url(#paint21_linear_222_1002)" stroke-opacity="0.4" stroke-miterlimit="10"/>
<path d="M0.249512 154.618C58.0675 155.131 117.154 167.631 174.512 159.234C246.95 148.628 310.32 122.529 381.569 109.703C507.92 86.9533 596.265 162.703 708.336 181.115C768.57 191.009 820.457 158.721 869.048 142.136C897.068 132.574 925.967 126.167 957.922 131.88C990.126 137.666 1019.48 148.169 1047.72 158.908C1098.41 178.213 1155.69 206.182 1219.42 202.568C1298.31 198.086 1358.1 157.731 1438.17 154.594" stroke="url(#paint22_linear_222_1002)" stroke-opacity="0.4" stroke-miterlimit="10"/>
<path d="M0.269531 148.597C58.6468 149.376 117.903 163.475 176.02 154.902C246.221 144.537 306.975 118.427 375.927 105.818C499.592 83.2006 597.383 154.401 707.617 173.918C766.763 184.391 814.755 153.822 862.517 137.557C890.418 128.055 917.909 122.909 949.334 128.828C981.988 134.981 1012.12 145.219 1041.41 155.692C1093.69 174.394 1152.99 200.818 1217.11 197.114C1296.83 192.505 1357.37 151.867 1438.23 148.597" stroke="url(#paint23_linear_222_1002)" stroke-opacity="0.4" stroke-miterlimit="10"/>
<path d="M0.289551 142.715C59.206 143.753 118.662 159.414 177.448 150.697C245.492 140.604 303.679 114.499 370.435 102.138C491.653 79.6955 598.512 146.263 706.958 166.871C765.025 177.911 809.113 149.062 856.096 133.087C883.877 123.645 910.02 119.76 940.846 125.847C973.949 132.375 1004.84 142.377 1035.18 152.561C1089 170.623 1150.27 195.558 1214.84 191.775C1295.35 187.039 1356.64 146.07 1438.29 142.727" stroke="url(#paint24_linear_222_1002)" stroke-opacity="0.4" stroke-miterlimit="10"/>
<path d="M0.30957 136.96C59.8152 138.245 119.411 155.409 178.916 146.571C244.913 136.767 300.644 110.681 365.322 98.5848C484.214 76.3474 599.62 138.293 706.249 159.994C763.348 171.613 803.491 144.362 849.825 128.707C877.516 119.356 902.291 116.641 932.598 122.903C966.13 129.805 997.766 139.609 1029.1 149.496C1084.39 166.938 1147.55 190.406 1212.57 186.527C1293.85 181.67 1355.85 140.405 1438.25 136.96" stroke="url(#paint25_linear_222_1002)" stroke-opacity="0.4" stroke-miterlimit="10"/>
<path d="M0.32959 131.343C60.3944 132.839 120.16 151.415 180.334 142.486C244.444 132.978 297.868 106.892 360.609 95.0795C421.473 83.617 486.221 96.5576 543.07 110.385C597.892 123.724 650.009 141.219 705.65 153.315C762.03 165.574 797.989 139.608 843.974 124.357C905.037 104.117 967.578 129.787 1023.47 146.432C1080.1 163.276 1145.04 185.344 1210.48 181.38C1292.48 176.421 1355.16 134.867 1438.29 131.337" stroke="url(#paint26_linear_222_1002)" stroke-opacity="0.4" stroke-miterlimit="10"/>
<path d="M0.349365 125.853C60.9734 127.525 120.749 147.385 181.692 138.39C244.094 129.172 295.391 103.103 356.445 91.5503C416.749 80.124 483.205 92.5337 540.324 105.197C596.255 117.6 649.489 133.98 705.12 146.866C760.751 159.752 793.245 135.06 838.641 120.026C898.316 100.268 963.464 127.868 1018.39 143.343C1076.2 159.632 1142.79 180.361 1208.6 176.343C1291.23 171.293 1354.53 129.461 1438.27 125.853" stroke="url(#paint27_linear_222_1002)" stroke-opacity="0.4" stroke-miterlimit="10"/>
<path d="M0.369629 120.502C61.5629 122.312 121.288 143.283 182.941 134.233C243.854 125.298 293.264 99.2423 352.7 87.9125C412.545 76.5405 480.519 88.4434 537.898 100.057C594.817 111.586 649.12 126.982 704.661 140.658C730.864 147.107 750.067 147.373 775.401 139.053C795.992 132.291 813.407 122.469 833.968 115.658C861.399 106.56 883.248 106.814 911.977 113.577C946.498 121.715 980.131 131.072 1014 140.164C1072.79 155.897 1140.82 175.42 1206.93 171.366C1290.13 166.262 1353.96 124.152 1438.3 120.502" stroke="url(#paint28_linear_222_1002)" stroke-opacity="0.4" stroke-miterlimit="10"/>
<path d="M0.389404 115.278C62.1518 117.088 121.697 139.06 184.069 129.98C243.774 121.287 291.497 95.1339 349.734 84.0937C409.27 72.8061 478.492 84.2144 536.1 94.953C593.708 105.692 649.02 120.291 704.381 134.77C729.965 141.461 748.669 142.408 773.783 134.131C793.695 127.567 810.311 117.878 830.173 111.266C857.454 102.18 878.964 103.146 907.194 110.132C941.885 118.717 976.036 128.056 1010.55 136.894C1070.07 152.133 1139.43 170.569 1205.64 166.503C1289.3 161.369 1353.56 119.006 1438.31 115.332" stroke="url(#paint29_linear_222_1002)" stroke-opacity="0.4" stroke-miterlimit="10"/>
<path d="M0.409424 110.198C62.751 111.96 121.957 134.692 185.028 125.588C243.844 117.088 290.079 90.7361 347.507 80.0217C406.963 68.9151 476.934 79.8045 534.902 89.7769C593.339 99.8217 649.13 113.812 704.262 129.087C729.326 136.025 747.82 137.485 772.745 129.208C792.117 122.783 808.064 113.154 827.377 106.669C854.529 97.5533 876.018 99.0314 903.819 106.283C938.559 115.332 973.111 124.695 1008.15 133.347C1068.07 148.145 1138.59 165.629 1204.74 161.593C1288.73 156.465 1353.3 113.86 1438.41 110.198" stroke="url(#paint30_linear_222_1002)" stroke-opacity="0.4" stroke-miterlimit="10"/>
<path d="M0.429443 105.245C63.3403 106.844 122.037 130.125 185.807 120.997C244.014 112.666 289.25 86.1992 345.99 75.6114C405.256 64.5591 476.145 75.2132 534.263 84.5642C593.299 94.0661 649.34 107.676 704.212 123.778C728.867 131.018 747.46 132.767 772.255 124.436C791.228 118.059 806.676 108.424 825.62 101.987C852.671 92.7931 874.46 94.5306 901.931 102.114C936.602 111.682 971.413 121.112 1006.84 129.618C1066.94 144.043 1138.28 160.742 1204.16 156.766C1288.35 151.692 1353.08 108.859 1438.39 105.245" stroke="url(#paint31_linear_222_1002)" stroke-opacity="0.4" stroke-miterlimit="10"/>
<path d="M0.459473 100.419C63.6898 101.855 121.977 125.389 186.136 116.177C244.144 107.851 289.11 81.4092 345.67 70.8818C404.876 59.8657 476.085 70.737 534.223 79.8889C593.469 89.2158 649.33 102.723 704.272 118.898C728.837 126.137 747.69 127.645 772.315 119.368C791.159 113.034 806.507 103.484 825.35 97.131C852.312 88.0454 874.5 89.7346 901.712 97.5352C936.233 107.429 971.084 116.931 1006.66 125.353C1066.47 139.512 1138.74 156.024 1204.11 151.898C1288.18 146.601 1353.33 104.491 1438.42 100.437" stroke="url(#paint32_linear_222_1002)" stroke-opacity="0.4" stroke-miterlimit="10"/>
<path d="M0.479248 95.6709C63.8494 97.0343 121.967 120.726 186.276 111.405C244.194 103.007 289.39 76.7879 345.989 66.3268C405.196 55.3831 476.245 66.731 534.293 75.9433C593.349 85.3184 648.97 98.802 704.292 114.21C756.657 128.792 782.611 106.367 825.739 92.383C852.701 83.6413 875.03 85.234 901.991 93.0647C936.363 103.049 971.153 112.527 1006.72 120.852C1066.18 134.764 1139.38 151.355 1204.29 146.878C1288 141.099 1353.95 100.702 1438.47 95.7614" stroke="url(#paint33_linear_222_1002)" stroke-opacity="0.4" stroke-miterlimit="10"/>
<path d="M0.499268 90.9952C64.0592 92.3104 122.037 116.177 186.546 106.777C244.463 98.3313 289.839 72.3898 346.469 62.0252C405.675 51.166 476.514 62.9482 534.472 72.1907C593.299 81.5718 648.71 94.9951 704.351 109.625C756.278 123.283 783.16 101.257 826.319 87.9064C853.28 79.5448 875.808 81.0892 902.531 88.932C936.742 98.9708 971.433 108.376 1006.99 116.557C1066.21 130.185 1140.14 146.601 1204.51 141.823C1287.8 135.645 1354.56 97.004 1438.46 91.2788" stroke="url(#paint34_linear_222_1002)" stroke-opacity="0.4" stroke-miterlimit="10"/>
<path d="M0.519287 86.4043C64.2989 87.6833 122.187 111.743 186.935 102.301C244.783 93.8671 290.428 68.2211 347.098 57.9652C406.304 47.2869 476.914 59.3648 534.762 68.6133C593.309 77.9643 648.601 91.285 704.441 105.106C755.998 117.854 783.799 96.3164 827.068 83.587C854.099 75.6416 876.797 77.1861 903.319 85.0228C937.341 95.0797 971.962 104.376 1007.46 112.364C1066.53 125.667 1140.91 141.678 1204.84 136.652C1287.72 130.143 1355.25 93.3181 1438.51 86.887" stroke="url(#paint35_linear_222_1002)" stroke-opacity="0.4" stroke-miterlimit="10"/>
<path d="M0.539062 81.8916C64.5883 83.1585 122.366 107.405 187.444 97.9573C245.242 89.5715 291.167 64.2152 347.887 54.1644C407.073 43.6731 477.323 56.0225 535.151 65.2408C593.379 74.5315 648.501 87.7134 704.571 100.702C755.739 112.557 784.518 91.5865 827.986 79.5448C855.108 72.0278 877.985 73.6265 904.338 81.4392C938.094 91.5471 972.732 100.541 1008.1 108.382C1067.12 121.317 1141.71 136.737 1205.27 131.482C1287.61 124.707 1355.97 89.7404 1438.5 82.7" stroke="url(#paint36_linear_222_1002)" stroke-opacity="0.4" stroke-miterlimit="10"/>
<path d="M0.569336 77.4635C64.9081 78.7304 122.666 103.188 188.064 93.7524C245.812 85.433 292.046 60.4145 348.836 50.5688C408.002 40.3128 477.953 52.8553 535.671 62.0313C593.589 71.2255 648.561 84.2264 704.761 96.3707C755.549 107.351 785.367 87.0015 829.095 75.6898C856.346 68.6374 879.394 70.3266 905.596 78.103C939.149 88.144 973.661 96.9696 1008.95 104.533C1068 117.064 1142.58 131.645 1205.8 126.252C1287.61 119.272 1356.75 86.2173 1438.56 78.6279" stroke="url(#paint37_linear_222_1002)" stroke-opacity="0.4" stroke-miterlimit="10"/>
<path d="M0.589111 73.1319C65.2574 74.4049 123.006 99.0734 188.772 89.7104C246.481 81.4935 293.045 56.837 349.854 47.2266C408.99 37.224 478.571 49.9173 536.24 59.0149C593.728 68.0643 648.68 80.8601 704.941 92.1416C755.369 102.259 786.285 82.6036 830.313 72.0581C857.714 65.4943 880.941 67.3102 907.034 75.0745C940.357 85.0195 974.714 93.6466 1009.89 100.901C1069.03 112.967 1143.39 126.577 1206.34 121.057C1287.58 113.939 1357.47 82.8329 1438.54 74.7789" stroke="url(#paint38_linear_222_1002)" stroke-opacity="0.4" stroke-miterlimit="10"/>
<path d="M0.609131 68.8847C65.6369 70.1878 123.435 95.0917 189.581 85.7768C247.249 77.7048 294.153 53.4404 351.022 44.0894C410.119 34.3764 479.321 47.1602 536.859 56.1553C593.948 65.084 648.84 77.5902 705.12 88.003C755.199 97.2635 787.274 78.3503 831.631 68.6132C859.202 62.5803 882.609 64.535 908.622 72.233C941.724 82.06 975.938 90.4568 1011.01 97.36C1070.34 108.961 1144.28 121.419 1207 115.803C1287.65 108.563 1358.25 79.4785 1438.57 71.0083" stroke="url(#paint39_linear_222_1002)" stroke-opacity="0.4" stroke-miterlimit="10"/>
<path d="M0.628906 64.7343C66.0462 66.0736 123.834 91.2188 190.47 82.0306C248.098 74.0793 295.371 50.2251 352.3 41.1637C411.347 31.7705 480.119 44.5964 537.578 53.4769C594.267 62.2427 649.11 74.4352 705.34 83.9672C755.079 92.4133 788.382 74.2723 833.089 65.3738C860.849 59.8537 884.436 62.0195 910.389 69.5968C943.26 79.2749 977.312 87.4151 1012.24 93.9456C1071.81 105.016 1145.15 116.189 1207.69 110.506C1287.74 103.266 1359.01 76.1787 1438.57 67.3586" stroke="url(#paint40_linear_222_1002)" stroke-opacity="0.4" stroke-miterlimit="10"/>
<path d="M0.64917 60.686C66.4759 62.0736 124.324 87.4601 191.379 78.3986C249.037 70.6343 296.68 47.1904 353.679 38.4427C412.665 29.3933 480.958 42.2132 538.417 50.9609C594.687 59.5397 649.489 71.3824 705.66 80.0275C755.06 87.635 789.661 70.3387 834.737 62.3209C862.697 57.3498 886.453 59.7268 912.387 67.2679C945.019 76.7761 978.9 84.6318 1013.68 90.754C1073.48 101.257 1146.08 111.055 1208.48 105.305C1287.9 98.0237 1359.81 73.0474 1438.61 63.9257" stroke="url(#paint41_linear_222_1002)" stroke-opacity="0.4" stroke-miterlimit="10"/>
<path d="M0.668945 56.7586C66.905 58.1884 124.823 83.8162 192.467 74.9056C250.035 67.3162 298.077 44.3308 355.136 35.9149C414.053 27.2215 481.877 40.0112 539.205 48.584C595.066 56.9577 649.829 68.4082 705.879 76.1725C754.97 82.9776 790.939 66.5199 836.364 59.4252C864.524 55.0151 888.47 57.6153 914.414 65.1021C946.799 74.4201 980.499 81.9693 1015.11 87.6592C1075.3 97.5532 1146.99 105.818 1209.3 100.081C1288.1 92.8415 1360.58 69.9647 1438.63 60.5835" stroke="url(#paint42_linear_222_1002)" stroke-opacity="0.4" stroke-miterlimit="10"/>
<path d="M0.688965 52.8975C67.4044 54.4117 125.432 80.2869 193.556 71.5452C251.114 64.167 299.575 41.6401 356.674 33.5741C415.541 25.2667 482.855 37.9841 540.104 46.4121C595.546 54.5746 650.268 65.5907 706.169 72.4743C754.97 78.5072 792.357 62.9362 838.122 56.7887C866.492 52.9578 890.617 55.8355 916.601 63.2198C948.74 72.3288 982.253 79.5512 1016.68 84.7874C1077.23 94.0299 1147.93 100.708 1210.15 94.965C1288.34 87.7556 1361.34 67.0627 1438.65 57.4644" stroke="url(#paint43_linear_222_1002)" stroke-opacity="0.4" stroke-miterlimit="10"/>
<path d="M0.708984 49.163C67.9037 50.7557 126.031 76.8782 194.724 68.3295C252.232 61.1685 301.083 39.1182 358.282 31.4202C417.069 23.505 483.864 36.1319 541.023 44.3728C596.065 52.3061 650.718 62.8577 706.439 68.8604C754.99 74.091 793.825 59.4611 839.939 54.2306C868.509 50.9909 892.804 54.1522 918.877 61.4701C950.766 70.3526 984.085 77.2262 1018.31 81.982C1079.22 90.5246 1148.84 95.544 1211.03 89.8248C1288.61 82.6999 1362.07 64.1909 1438.67 54.3995" stroke="url(#paint44_linear_222_1002)" stroke-opacity="0.4" stroke-miterlimit="10"/>
<path d="M0.729004 45.5433C68.3931 47.2204 126.67 73.5903 195.892 65.2467C253.411 58.3149 302.671 36.7533 359.94 29.4354C418.647 21.9365 484.913 34.4367 542.032 42.4846C596.684 50.1886 651.257 60.2334 706.798 65.3614C755.14 69.8197 795.452 56.1431 841.897 51.8778C870.676 49.2294 895.141 52.6923 921.314 59.9016C952.955 68.5544 986.078 75.0731 1020.08 79.3396C1081.41 87.1402 1149.84 90.4462 1212.01 84.7692C1288.9 77.7349 1362.8 61.4581 1438.69 51.5038" stroke="url(#paint45_linear_222_1002)" stroke-opacity="0.4" stroke-miterlimit="10"/>
<path d="M0.749023 42.0381C68.9024 43.8058 127.33 70.3928 197.121 62.3027C254.639 55.6122 304.309 34.5392 361.647 27.6195C420.274 20.561 486.001 32.9043 543.05 40.7471C597.333 48.2098 651.806 57.7177 707.108 61.9769C755.279 65.6872 797.06 52.9818 843.804 49.6818C872.763 47.6367 897.418 51.4133 923.691 58.5321C955.086 66.9388 988.009 73.0843 1021.78 76.842C1083.49 83.8583 1150.72 85.4208 1212.89 79.7861C1289.22 72.8724 1363.41 58.8458 1438.64 48.7467" stroke="url(#paint46_linear_222_1002)" stroke-opacity="0.4" stroke-miterlimit="10"/>
<path d="M0.769043 38.6599C69.4217 40.518 128.019 67.3765 198.369 59.4976C255.877 53.0484 305.986 32.4822 363.395 25.9908C421.922 19.3546 487.1 31.5592 544.139 39.1848C598.062 46.4242 652.415 55.3469 707.487 58.7435C755.569 61.7116 798.778 49.9957 845.881 47.667C875.05 46.2252 899.805 50.3336 926.327 57.3559C957.48 65.5121 990.202 71.2763 1023.73 74.5135C1164.53 88.5641 1302.5 64.8608 1438.78 46.1588" stroke="url(#paint47_linear_222_1002)" stroke-opacity="0.4" stroke-miterlimit="10"/>
<path d="M0.788818 35.39C69.9508 37.3507 128.717 64.4445 199.647 56.8128C257.155 50.6231 307.694 30.5697 365.172 24.4583C423.599 18.2444 488.228 30.2982 545.147 37.7006C598.761 44.6927 652.954 53.0362 707.777 55.552C755.848 57.7781 800.415 47.1059 847.868 45.7183C877.206 44.8737 902.171 49.3381 928.843 56.2578C959.64 64.2997 992.343 69.4276 1025.55 72.2631C1162.76 83.9851 1305.88 62.2244 1438.75 43.649" stroke="url(#paint48_linear_222_1002)" stroke-opacity="0.4" stroke-miterlimit="10"/>
<path d="M0.808838 32.2526C70.4801 34.3159 129.427 61.645 200.935 54.2667C258.454 48.3123 309.411 28.7958 366.96 23.0947C425.287 17.3212 489.356 29.2121 546.216 36.3671C599.54 43.0938 653.544 50.8461 708.116 52.5413C756.278 54.0375 802.103 44.3728 849.915 43.9686C879.423 43.7212 904.548 48.5355 931.43 55.3708C962.026 63.1472 994.51 67.8348 1027.43 70.1635C1090.15 74.5977 1153.75 70.821 1215.96 65.3975C1290.59 58.888 1365.33 51.745 1438.77 41.2658" stroke="url(#paint49_linear_222_1002)" stroke-opacity="0.4" stroke-miterlimit="10"/>
<path d="M0.828857 29.2425C70.4102 31.3721 129.277 58.7494 200.716 52.0046C258.004 46.575 309.062 27.8187 366.161 22.1297C423.879 16.3803 486.66 27.7885 543.02 34.6781C597.503 41.3143 652.695 48.7288 708.466 49.6578C757.976 50.4844 806.217 41.3505 855.617 42.4184C885.435 43.0639 910.29 48.952 937.621 55.4917C966.011 62.2847 995.988 66.176 1026.31 68.016C1090.83 71.9313 1154.83 66.1579 1218.59 60.7101C1292.19 54.4238 1366.44 49.5854 1438.82 39.0761" stroke="url(#paint50_linear_222_1002)" stroke-opacity="0.4" stroke-miterlimit="10"/>
<path d="M0.838867 26.3648C70.8996 28.597 130.006 56.2036 201.974 49.7182C259.273 44.554 310.74 26.2924 367.928 21.0196C425.527 15.7348 487.808 26.9801 544.089 33.6465C598.312 40.0776 653.294 46.9189 708.775 46.9189C758.575 46.9189 807.885 38.9977 857.694 41.0187C887.552 42.2253 912.616 48.4513 940.157 54.8522C968.357 61.4039 998.135 64.8849 1028.19 66.2604C1092.93 69.2226 1155.82 61.603 1219.57 56.3061C1292.69 50.231 1366.93 47.6429 1438.8 37.0008" stroke="url(#paint51_linear_222_1002)" stroke-opacity="0.4" stroke-miterlimit="10"/>
<path d="M0.858887 23.6258C71.4488 25.9605 130.675 53.7903 203.252 47.5583C260.571 42.6355 312.437 24.8867 369.706 20.0241C427.185 15.1314 488.977 26.2984 545.227 32.7475C599.151 38.9433 653.923 45.1693 709.115 44.2885C759.274 43.4861 809.552 36.7534 859.781 39.7156C889.679 41.4832 914.943 48.041 942.664 54.3031C970.624 60.6196 1000.26 63.6904 1030.04 64.6013C1094.95 66.5982 1156.8 57.1688 1220.53 52.0167C1293.19 46.1406 1367.32 45.8148 1438.77 35.0401" stroke="url(#paint52_linear_222_1002)" stroke-opacity="0.4" stroke-miterlimit="10"/>
<path d="M0.878906 21.0255C71.9581 23.4386 131.434 51.5037 204.52 45.5311C261.849 40.8436 314.115 23.5774 371.474 19.1492C428.832 14.7211 490.125 25.7372 546.226 31.9631C600.02 37.9357 654.532 43.5765 709.424 41.8088C760.023 40.18 811.16 34.6538 861.808 38.545C891.766 40.8436 917.21 47.7573 945.19 53.8747C973.171 59.992 1002.43 62.6224 1031.93 63.0809C1096.84 64.1005 1157.87 52.9034 1221.53 47.896C1293.77 42.213 1367.84 44.1436 1438.81 33.2119" stroke="url(#paint53_linear_222_1002)" stroke-opacity="0.4" stroke-miterlimit="10"/>
<path d="M0.888672 18.5645C72.4572 21.0983 132.143 49.3323 205.748 43.6373C263.107 39.1789 315.752 22.4376 373.191 18.3835C430.39 14.3475 491.303 25.2912 547.304 31.306C600.938 37.0614 655.151 42.1109 709.774 39.4746C760.871 37.0071 812.768 32.6815 863.865 37.4837C893.733 40.295 919.476 47.5707 947.657 53.5493C975.317 59.4133 1004.58 61.6696 1033.75 61.6877C1098.66 61.736 1158.92 48.8256 1222.49 43.951C1294.38 38.4369 1368.28 42.6177 1438.81 31.5111" stroke="url(#paint54_linear_222_1002)" stroke-opacity="0.4" stroke-miterlimit="10"/>
<path d="M0.898682 16.2534C72.9465 18.8717 132.812 47.341 206.947 41.8631C264.335 37.6401 317.36 21.3512 374.869 17.7315C432.008 14.1117 492.312 24.971 548.323 30.7746C601.847 36.3008 655.79 40.7832 710.093 37.2902C761.74 33.9721 814.306 30.847 865.872 36.5421C895.73 39.83 921.693 47.4737 950.083 53.3136C977.614 58.9725 1006.62 60.8246 1035.53 60.4143C1100.34 59.5034 1159.97 44.9399 1223.45 40.1799C1294.93 34.8227 1368.64 41.2538 1438.84 29.924" stroke="url(#paint55_linear_222_1002)" stroke-opacity="0.4" stroke-miterlimit="10"/>
<path d="M0.918701 14.0879C73.4159 16.7967 133.491 45.459 208.115 40.2225C265.534 36.1864 318.958 20.4224 376.496 17.1466C433.515 13.9009 493.331 24.742 549.311 30.3285C602.736 35.6435 656.409 39.5649 710.403 35.2332C762.629 31.0464 815.843 29.1038 867.77 35.6736C897.598 39.4442 923.78 47.4499 952.42 53.1691C979.781 58.5987 1008.64 60.0949 1037.3 59.2684C1101.94 57.4163 1161.05 41.2722 1224.42 36.6148C1295.57 31.3842 1369.06 40.0475 1438.92 28.4945" stroke="url(#paint56_linear_222_1002)" stroke-opacity="0.4" stroke-miterlimit="10"/>
<path d="M0.928711 12.0728C73.8254 14.866 134.12 43.7335 209.223 38.7081C266.672 34.8591 320.396 19.5717 378.064 16.6578C434.983 13.7861 494.359 24.6091 550.25 30.0026C603.604 35.1607 657.009 38.4909 710.683 33.3388C763.518 28.2711 817.211 27.4868 869.587 34.9073C899.355 39.1304 925.788 47.498 954.617 53.0845C981.838 58.3572 1010.54 59.4492 1038.9 58.2306C1103.31 55.4614 1162.01 37.8272 1225.26 33.2302C1296.16 28.0962 1369.35 38.9795 1438.9 27.149" stroke="url(#paint57_linear_222_1002)" stroke-opacity="0.4" stroke-miterlimit="10"/>
<path d="M0.938477 10.2207C74.2945 13.0803 134.749 42.1408 210.272 37.3145C267.77 33.6465 321.824 18.8116 379.552 16.2536C436.381 13.7379 495.298 24.5609 551.138 29.7854C604.443 34.7746 657.588 37.5498 710.962 31.5953C764.336 25.6408 818.559 25.9907 871.345 34.2317C901.042 38.871 927.735 47.5041 956.724 53.0664C983.685 58.2487 1012.42 58.9003 1040.43 57.2895C1104.58 53.6697 1162.96 34.6118 1226.08 30.075C1296.67 25.0013 1369.65 38.0867 1438.9 25.9364" stroke="url(#paint58_linear_222_1002)" stroke-opacity="0.4" stroke-miterlimit="10"/>
<path d="M0.998535 8.49512C74.754 11.415 135.338 40.6686 211.31 36.0293C268.789 32.5363 323.162 18.1478 380.96 15.9216C437.659 13.7377 496.197 24.597 551.977 29.6706C605.252 34.497 658.147 36.7472 711.212 30.0085C765.275 23.1491 819.818 24.5789 872.982 33.6282C902.62 38.6597 929.542 47.6185 958.701 53.1025C985.553 58.152 1014.14 58.4416 1041.86 56.505C1072.11 54.3875 1101.6 49.537 1130.64 44.1557C1161.97 38.358 1194.22 29.5138 1226.86 27.173C1297.21 22.1235 1369.94 37.3807 1438.91 24.8684" stroke="url(#paint59_linear_222_1002)" stroke-opacity="0.4" stroke-miterlimit="10"/>
<path d="M0.998535 6.98706C75.1135 9.95525 135.807 39.3959 212.219 34.9134C269.748 31.535 324.41 17.5447 382.278 15.6503C438.888 13.7741 497.005 24.6997 552.736 29.6467C606.011 34.3644 658.696 36.0838 711.451 28.5849C766.104 20.8145 821.006 23.282 874.56 33.1156C904.068 38.5452 931.22 47.7756 960.528 53.1811C987.27 58.1099 1015.73 58.0737 1043.18 55.8054C1073.37 53.3198 1102.69 48.0471 1131.56 42.3218C1162.66 36.1562 1194.96 26.8534 1227.59 24.4946C1297.72 19.433 1370.22 36.8319 1438.92 23.8913" stroke="url(#paint60_linear_222_1002)" stroke-opacity="0.4" stroke-miterlimit="10"/>
<path d="M0.998535 5.61768C75.453 8.63413 136.307 38.2497 213.048 33.9C270.616 30.6301 325.538 17.0621 383.456 15.4393C439.986 13.8526 497.714 24.9049 553.405 29.7252C606.69 34.3283 659.185 35.565 711.631 27.312C766.913 18.6427 822.065 22.0815 875.998 32.6692C905.396 38.4367 932.748 47.9506 962.206 53.2958C988.838 58.1221 1017.13 57.7843 1044.38 55.2203C1074.5 52.3848 1103.67 46.7139 1132.38 40.6749C1163.28 34.1775 1195.61 24.4645 1228.25 22.0694C1298.15 16.9414 1370.48 36.4579 1438.95 23.0528" stroke="url(#paint61_linear_222_1002)" stroke-opacity="0.4" stroke-miterlimit="10"/>
<path d="M0.998535 4.41724C75.7625 7.43369 136.716 37.2544 213.787 33.0072C271.425 29.8279 326.627 16.6339 384.605 15.2765C441.075 13.9492 498.443 25.1644 554.074 29.8882C607.379 34.4068 659.725 35.1851 711.851 26.2262C767.702 16.6278 822.993 20.9715 877.306 32.2591C906.605 38.3584 934.136 48.1196 963.714 53.4165C990.256 58.1644 1018.45 57.5611 1045.44 54.7257C1075.52 51.5644 1104.52 45.5315 1133.11 39.203C1163.84 32.3918 1196.19 22.347 1228.87 19.8977C1298.63 14.6611 1370.78 36.2469 1438.95 22.3109" stroke="url(#paint62_linear_222_1002)" stroke-opacity="0.4" stroke-miterlimit="10"/>
<path d="M0.998535 3.3916C76.0521 6.40806 137.066 36.4158 214.436 32.2349C272.084 29.122 327.536 16.2779 385.563 15.1316C441.973 14.0397 498.963 25.454 554.594 30.1114C607.928 34.5757 660.174 34.9377 712.001 25.285C768.431 14.7697 823.752 19.9338 878.465 31.9212C907.633 38.3161 935.324 48.3006 965.012 53.5613C991.474 58.2549 1019.52 57.4223 1046.33 54.3456C1076.36 50.8887 1105.24 44.53 1133.71 37.936C1164.3 30.8474 1196.62 20.5432 1229.39 18.0274C1299 12.628 1371.06 36.2468 1438.96 21.6955" stroke="url(#paint63_linear_222_1002)" stroke-opacity="0.4" stroke-miterlimit="10"/>
<path d="M0.998535 2.53467C75.6827 5.55112 136.496 35.5588 213.417 31.6676C274.201 28.5968 332.958 14.7272 394.291 15.0107C446.727 15.252 499.342 25.6588 551.139 30.1352C606.171 34.8892 658.846 34.7564 712.14 24.5789C771.237 13.3215 826.608 19.2398 883.567 32.6268C909.101 38.6235 933.427 46.8042 959.15 52.4208C986.372 58.3632 1016.26 57.7841 1044.27 54.4841C1076.05 50.7437 1106.48 43.6248 1136.46 36.3853C1166.68 29.0614 1198.8 18.7511 1231.38 16.338C1300.29 11.2643 1371.94 36.3129 1438.95 21.2065" stroke="url(#paint64_linear_222_1002)" stroke-opacity="0.4" stroke-miterlimit="10"/>
<path d="M0.998535 1.85889C75.8924 4.83311 136.706 35.0399 213.837 31.1426C274.641 28.0659 333.667 14.522 394.98 14.9744C447.376 15.3666 499.722 26.0629 551.488 30.5454C606.56 35.3114 659.225 34.8408 712.26 23.9997C771.956 11.7891 827.038 18.4011 884.466 32.4457C909.88 38.6596 934.275 46.9127 960.069 52.5353C987.23 58.4838 1016.99 57.784 1044.84 54.297C1076.6 50.3213 1106.91 42.8948 1136.8 35.4622C1166.98 27.9573 1199.09 17.5324 1231.75 14.9986C1300.53 9.70167 1372.26 36.6266 1438.96 20.7902" stroke="url(#paint65_linear_222_1002)" stroke-opacity="0.4" stroke-miterlimit="10"/>
<path d="M0.998535 1.37671C76.0422 4.30267 136.806 34.6904 214.156 30.7329C274.97 27.6199 334.126 14.3656 395.519 14.9628C447.895 15.4696 499.991 26.5098 551.738 31.0285C606.84 35.8548 659.585 35.0886 712.28 23.5959C772.555 10.4562 827.197 17.6233 885.115 32.2592C910.469 38.6601 934.925 46.9976 960.738 52.6866C987.879 58.6652 1017.38 57.9111 1045.21 54.2612C1109.51 45.8151 1167.12 19.3729 1232.03 14.0398C1300.69 8.39902 1372.61 37.1398 1438.96 20.5071" stroke="url(#paint66_linear_222_1002)" stroke-opacity="0.4" stroke-miterlimit="10"/>
<path d="M0.998535 1.06958C76.162 3.93521 136.906 34.504 214.346 30.4499C275.17 27.2584 334.526 14.2636 395.889 14.9573C448.274 15.5606 500.141 26.987 551.868 31.584C606.989 36.4828 659.914 35.4934 712.31 23.3793C773.114 9.31657 827.147 16.8999 885.614 32.127C910.759 38.6606 935.274 47.3179 961.147 52.7837C988.628 58.5813 1017.24 58.1107 1045.37 54.2979C1109.78 45.5623 1167.07 19.0959 1232.21 13.3767C1300.78 7.34381 1373.01 37.8402 1438.92 20.3266" stroke="url(#paint67_linear_222_1002)" stroke-opacity="0.4" stroke-miterlimit="10"/>
<path d="M0.998535 0.954102C76.2419 3.73527 136.876 34.485 214.396 30.2801C275.22 26.9801 334.656 14.2024 396.138 14.9505C448.534 15.5899 500.201 27.4989 551.917 32.2046C607.039 37.2179 660.244 36.0656 712.33 23.3422C773.603 8.36252 826.878 16.2174 885.904 32.0236C939.827 46.4543 984.255 62.8819 1045.32 54.4238C1109.9 45.477 1166.92 19.2338 1232.29 13.0561C1300.78 6.58281 1373.39 38.7262 1439 20.2956" stroke="url(#paint68_linear_222_1002)" stroke-opacity="0.4" stroke-miterlimit="10"/>
<defs>
<linearGradient id="paint0_linear_222_1002" x1="718.981" y1="320.861" x2="718.981" y2="322.013" gradientUnits="userSpaceOnUse">
<stop stop-color="#FFFCAB" stop-opacity="0"/>
<stop offset="1" stop-color="#0B161E"/>
</linearGradient>
<linearGradient id="paint1_linear_222_1002" x1="718.961" y1="307.715" x2="718.961" y2="312.074" gradientUnits="userSpaceOnUse">
<stop stop-color="#FFFCAB" stop-opacity="0"/>
<stop offset="1" stop-color="#0B161E"/>
</linearGradient>
<linearGradient id="paint2_linear_222_1002" x1="718.981" y1="295.917" x2="718.981" y2="303.968" gradientUnits="userSpaceOnUse">
<stop stop-color="#FFFCAB" stop-opacity="0"/>
<stop offset="1" stop-color="#0B161E"/>
</linearGradient>
<linearGradient id="paint3_linear_222_1002" x1="718.981" y1="284.12" x2="718.981" y2="297.613" gradientUnits="userSpaceOnUse">
<stop stop-color="#FFFCAB" stop-opacity="0"/>
<stop offset="1" stop-color="#0B161E"/>
</linearGradient>
<linearGradient id="paint4_linear_222_1002" x1="718.981" y1="270.126" x2="718.981" y2="292.595" gradientUnits="userSpaceOnUse">
<stop stop-color="#FFFCAB" stop-opacity="0"/>
<stop offset="1" stop-color="#0B161E"/>
</linearGradient>
<linearGradient id="paint5_linear_222_1002" x1="718.981" y1="256.277" x2="718.981" y2="288.599" gradientUnits="userSpaceOnUse">
<stop stop-color="#FFFCAB" stop-opacity="0"/>
<stop offset="1" stop-color="#0B161E"/>
</linearGradient>
<linearGradient id="paint6_linear_222_1002" x1="718.981" y1="241.099" x2="718.981" y2="285.396" gradientUnits="userSpaceOnUse">
<stop stop-color="#FFFCAB" stop-opacity="0"/>
<stop offset="1" stop-color="#0B161E"/>
</linearGradient>
<linearGradient id="paint7_linear_222_1002" x1="718.971" y1="225.809" x2="718.971" y2="282.689" gradientUnits="userSpaceOnUse">
<stop stop-color="#FFFCAB" stop-opacity="0"/>
<stop offset="1" stop-color="#0B161E"/>
</linearGradient>
<linearGradient id="paint8_linear_222_1002" x1="718.986" y1="210.713" x2="718.986" y2="280.211" gradientUnits="userSpaceOnUse">
<stop stop-color="#FFFCAB" stop-opacity="0"/>
<stop offset="1" stop-color="#0B161E"/>
</linearGradient>
<linearGradient id="paint9_linear_222_1002" x1="719.015" y1="196.128" x2="719.015" y2="277.622" gradientUnits="userSpaceOnUse">
<stop stop-color="#FFFCAB" stop-opacity="0"/>
<stop offset="1" stop-color="#0B161E"/>
</linearGradient>
<linearGradient id="paint10_linear_222_1002" x1="719.041" y1="181.28" x2="719.041" y2="274.679" gradientUnits="userSpaceOnUse">
<stop stop-color="#FFFCAB" stop-opacity="0"/>
<stop offset="1" stop-color="#0B161E"/>
</linearGradient>
<linearGradient id="paint11_linear_222_1002" x1="719.051" y1="168.571" x2="719.051" y2="271.128" gradientUnits="userSpaceOnUse">
<stop stop-color="#FFFCAB" stop-opacity="0"/>
<stop offset="1" stop-color="#0B161E"/>
</linearGradient>
<linearGradient id="paint12_linear_222_1002" x1="719.061" y1="157.341" x2="719.061" y2="266.701" gradientUnits="userSpaceOnUse">
<stop stop-color="#FFFCAB" stop-opacity="0"/>
<stop offset="1" stop-color="#0B161E"/>
</linearGradient>
<linearGradient id="paint13_linear_222_1002" x1="719.101" y1="147.974" x2="719.101" y2="261" gradientUnits="userSpaceOnUse">
<stop stop-color="#FFFCAB" stop-opacity="0"/>
<stop offset="1" stop-color="#0B161E"/>
</linearGradient>
<linearGradient id="paint14_linear_222_1002" x1="719.091" y1="139.367" x2="719.091" y2="254.068" gradientUnits="userSpaceOnUse">
<stop stop-color="#FFFCAB" stop-opacity="0"/>
<stop offset="1" stop-color="#0B161E"/>
</linearGradient>
<linearGradient id="paint15_linear_222_1002" x1="719.085" y1="130.731" x2="719.085" y2="247.128" gradientUnits="userSpaceOnUse">
<stop stop-color="#FFFCAB" stop-opacity="0"/>
<stop offset="1" stop-color="#0B161E"/>
</linearGradient>
<linearGradient id="paint16_linear_222_1002" x1="719.111" y1="123.05" x2="719.111" y2="240.436" gradientUnits="userSpaceOnUse">
<stop stop-color="#FFFCAB" stop-opacity="0"/>
<stop offset="1" stop-color="#0B161E"/>
</linearGradient>
<linearGradient id="paint17_linear_222_1002" x1="719.155" y1="116.193" x2="719.155" y2="233.91" gradientUnits="userSpaceOnUse">
<stop stop-color="#FFFCAB" stop-opacity="0"/>
<stop offset="1" stop-color="#0B161E"/>
</linearGradient>
<linearGradient id="paint18_linear_222_1002" x1="719.151" y1="110.115" x2="719.151" y2="227.589" gradientUnits="userSpaceOnUse">
<stop stop-color="#FFFCAB" stop-opacity="0"/>
<stop offset="1" stop-color="#0B161E"/>
</linearGradient>
<linearGradient id="paint19_linear_222_1002" x1="719.171" y1="104.744" x2="719.171" y2="221.453" gradientUnits="userSpaceOnUse">
<stop stop-color="#FFFCAB" stop-opacity="0"/>
<stop offset="1" stop-color="#0B161E"/>
</linearGradient>
<linearGradient id="paint20_linear_222_1002" x1="719.196" y1="100.67" x2="719.196" y2="215.539" gradientUnits="userSpaceOnUse">
<stop stop-color="#FFFCAB" stop-opacity="0"/>
<stop offset="1" stop-color="#0B161E"/>
</linearGradient>
<linearGradient id="paint21_linear_222_1002" x1="719.221" y1="96.1202" x2="719.221" y2="209.776" gradientUnits="userSpaceOnUse">
<stop stop-color="#FFFCAB" stop-opacity="0"/>
<stop offset="1" stop-color="#0B161E"/>
</linearGradient>
<linearGradient id="paint22_linear_222_1002" x1="719.21" y1="91.9698" x2="719.21" y2="204.146" gradientUnits="userSpaceOnUse">
<stop stop-color="#FFFCAB" stop-opacity="0"/>
<stop offset="1" stop-color="#0B161E"/>
</linearGradient>
<linearGradient id="paint23_linear_222_1002" x1="719.25" y1="88.1071" x2="719.25" y2="198.707" gradientUnits="userSpaceOnUse">
<stop stop-color="#FFFCAB" stop-opacity="0"/>
<stop offset="1" stop-color="#0B161E"/>
</linearGradient>
<linearGradient id="paint24_linear_222_1002" x1="719.29" y1="84.4542" x2="719.29" y2="193.383" gradientUnits="userSpaceOnUse">
<stop stop-color="#FFFCAB" stop-opacity="0"/>
<stop offset="1" stop-color="#0B161E"/>
</linearGradient>
<linearGradient id="paint25_linear_222_1002" x1="719.28" y1="80.9231" x2="719.28" y2="188.157" gradientUnits="userSpaceOnUse">
<stop stop-color="#FFFCAB" stop-opacity="0"/>
<stop offset="1" stop-color="#0B161E"/>
</linearGradient>
<linearGradient id="paint26_linear_222_1002" x1="719.31" y1="78.0204" x2="719.31" y2="183.027" gradientUnits="userSpaceOnUse">
<stop stop-color="#FFFCAB" stop-opacity="0"/>
<stop offset="1" stop-color="#0B161E"/>
</linearGradient>
<linearGradient id="paint27_linear_222_1002" x1="719.31" y1="74.5821" x2="719.31" y2="178.011" gradientUnits="userSpaceOnUse">
<stop stop-color="#FFFCAB" stop-opacity="0"/>
<stop offset="1" stop-color="#0B161E"/>
</linearGradient>
<linearGradient id="paint28_linear_222_1002" x1="719.335" y1="71.0257" x2="719.335" y2="173.054" gradientUnits="userSpaceOnUse">
<stop stop-color="#FFFCAB" stop-opacity="0"/>
<stop offset="1" stop-color="#0B161E"/>
</linearGradient>
<linearGradient id="paint29_linear_222_1002" x1="719.35" y1="67.271" x2="719.35" y2="168.209" gradientUnits="userSpaceOnUse">
<stop stop-color="#FFFCAB" stop-opacity="0"/>
<stop offset="1" stop-color="#0B161E"/>
</linearGradient>
<linearGradient id="paint30_linear_222_1002" x1="719.41" y1="63.2998" x2="719.41" y2="163.306" gradientUnits="userSpaceOnUse">
<stop stop-color="#FFFCAB" stop-opacity="0"/>
<stop offset="1" stop-color="#0B161E"/>
</linearGradient>
<linearGradient id="paint31_linear_222_1002" x1="719.41" y1="58.9096" x2="719.41" y2="158.48" gradientUnits="userSpaceOnUse">
<stop stop-color="#FFFCAB" stop-opacity="0"/>
<stop offset="1" stop-color="#0B161E"/>
</linearGradient>
<linearGradient id="paint32_linear_222_1002" x1="719.44" y1="54.2674" x2="719.44" y2="153.658" gradientUnits="userSpaceOnUse">
<stop stop-color="#FFFCAB" stop-opacity="0"/>
<stop offset="1" stop-color="#0B161E"/>
</linearGradient>
<linearGradient id="paint33_linear_222_1002" x1="719.475" y1="49.9331" x2="719.475" y2="148.733" gradientUnits="userSpaceOnUse">
<stop stop-color="#FFFCAB" stop-opacity="0"/>
<stop offset="1" stop-color="#0B161E"/>
</linearGradient>
<linearGradient id="paint34_linear_222_1002" x1="719.48" y1="45.8843" x2="719.48" y2="143.768" gradientUnits="userSpaceOnUse">
<stop stop-color="#FFFCAB" stop-opacity="0"/>
<stop offset="1" stop-color="#0B161E"/>
</linearGradient>
<linearGradient id="paint35_linear_222_1002" x1="719.515" y1="42.1593" x2="719.515" y2="138.682" gradientUnits="userSpaceOnUse">
<stop stop-color="#FFFCAB" stop-opacity="0"/>
<stop offset="1" stop-color="#0B161E"/>
</linearGradient>
<linearGradient id="paint36_linear_222_1002" x1="719.52" y1="38.7215" x2="719.52" y2="133.603" gradientUnits="userSpaceOnUse">
<stop stop-color="#FFFCAB" stop-opacity="0"/>
<stop offset="1" stop-color="#0B161E"/>
</linearGradient>
<linearGradient id="paint37_linear_222_1002" x1="719.565" y1="35.5402" x2="719.565" y2="128.449" gradientUnits="userSpaceOnUse">
<stop stop-color="#FFFCAB" stop-opacity="0"/>
<stop offset="1" stop-color="#0B161E"/>
</linearGradient>
<linearGradient id="paint38_linear_222_1002" x1="719.565" y1="32.6397" x2="719.565" y2="123.342" gradientUnits="userSpaceOnUse">
<stop stop-color="#FFFCAB" stop-opacity="0"/>
<stop offset="1" stop-color="#0B161E"/>
</linearGradient>
<linearGradient id="paint39_linear_222_1002" x1="719.59" y1="29.988" x2="719.59" y2="118.184" gradientUnits="userSpaceOnUse">
<stop stop-color="#FFFCAB" stop-opacity="0"/>
<stop offset="1" stop-color="#0B161E"/>
</linearGradient>
<linearGradient id="paint40_linear_222_1002" x1="719.6" y1="27.5879" x2="719.6" y2="112.996" gradientUnits="userSpaceOnUse">
<stop stop-color="#FFFCAB" stop-opacity="0"/>
<stop offset="1" stop-color="#0B161E"/>
</linearGradient>
<linearGradient id="paint41_linear_222_1002" x1="719.63" y1="25.4063" x2="719.63" y2="107.936" gradientUnits="userSpaceOnUse">
<stop stop-color="#FFFCAB" stop-opacity="0"/>
<stop offset="1" stop-color="#0B161E"/>
</linearGradient>
<linearGradient id="paint42_linear_222_1002" x1="719.65" y1="23.4459" x2="719.65" y2="102.86" gradientUnits="userSpaceOnUse">
<stop stop-color="#FFFCAB" stop-opacity="0"/>
<stop offset="1" stop-color="#0B161E"/>
</linearGradient>
<linearGradient id="paint43_linear_222_1002" x1="719.67" y1="21.6832" x2="719.67" y2="97.9559" gradientUnits="userSpaceOnUse">
<stop stop-color="#FFFCAB" stop-opacity="0"/>
<stop offset="1" stop-color="#0B161E"/>
</linearGradient>
<linearGradient id="paint44_linear_222_1002" x1="719.69" y1="20.1243" x2="719.69" y2="93.0876" gradientUnits="userSpaceOnUse">
<stop stop-color="#FFFCAB" stop-opacity="0"/>
<stop offset="1" stop-color="#0B161E"/>
</linearGradient>
<linearGradient id="paint45_linear_222_1002" x1="719.71" y1="18.7372" x2="719.71" y2="88.4043" gradientUnits="userSpaceOnUse">
<stop stop-color="#FFFCAB" stop-opacity="0"/>
<stop offset="1" stop-color="#0B161E"/>
</linearGradient>
<linearGradient id="paint46_linear_222_1002" x1="719.695" y1="17.5152" x2="719.695" y2="83.9538" gradientUnits="userSpaceOnUse">
<stop stop-color="#FFFCAB" stop-opacity="0"/>
<stop offset="1" stop-color="#0B161E"/>
</linearGradient>
<linearGradient id="paint47_linear_222_1002" x1="719.775" y1="16.4966" x2="719.775" y2="79.4741" gradientUnits="userSpaceOnUse">
<stop stop-color="#FFFCAB" stop-opacity="0"/>
<stop offset="1" stop-color="#0B161E"/>
</linearGradient>
<linearGradient id="paint48_linear_222_1002" x1="719.77" y1="15.4075" x2="719.77" y2="76.2565" gradientUnits="userSpaceOnUse">
<stop stop-color="#FFFCAB" stop-opacity="0"/>
<stop offset="1" stop-color="#0B161E"/>
</linearGradient>
<linearGradient id="paint49_linear_222_1002" x1="719.79" y1="14.5494" x2="719.79" y2="72.7698" gradientUnits="userSpaceOnUse">
<stop stop-color="#FFFCAB" stop-opacity="0"/>
<stop offset="1" stop-color="#0B161E"/>
</linearGradient>
<linearGradient id="paint50_linear_222_1002" x1="719.825" y1="13.8007" x2="719.825" y2="69.9324" gradientUnits="userSpaceOnUse">
<stop stop-color="#FFFCAB" stop-opacity="0"/>
<stop offset="1" stop-color="#0B161E"/>
</linearGradient>
<linearGradient id="paint51_linear_222_1002" x1="719.82" y1="13.0915" x2="719.82" y2="67.5348" gradientUnits="userSpaceOnUse">
<stop stop-color="#FFFCAB" stop-opacity="0"/>
<stop offset="1" stop-color="#0B161E"/>
</linearGradient>
<linearGradient id="paint52_linear_222_1002" x1="719.815" y1="12.4302" x2="719.815" y2="65.4705" gradientUnits="userSpaceOnUse">
<stop stop-color="#FFFCAB" stop-opacity="0"/>
<stop offset="1" stop-color="#0B161E"/>
</linearGradient>
<linearGradient id="paint53_linear_222_1002" x1="719.845" y1="11.8818" x2="719.845" y2="63.7286" gradientUnits="userSpaceOnUse">
<stop stop-color="#FFFCAB" stop-opacity="0"/>
<stop offset="1" stop-color="#0B161E"/>
</linearGradient>
<linearGradient id="paint54_linear_222_1002" x1="719.849" y1="11.3829" x2="719.849" y2="62.2594" gradientUnits="userSpaceOnUse">
<stop stop-color="#FFFCAB" stop-opacity="0"/>
<stop offset="1" stop-color="#0B161E"/>
</linearGradient>
<linearGradient id="paint55_linear_222_1002" x1="719.869" y1="10.1197" x2="719.869" y2="61.0411" gradientUnits="userSpaceOnUse">
<stop stop-color="#FFFCAB" stop-opacity="0"/>
<stop offset="1" stop-color="#0B161E"/>
</linearGradient>
<linearGradient id="paint56_linear_222_1002" x1="719.919" y1="7.7909" x2="719.919" y2="60.0679" gradientUnits="userSpaceOnUse">
<stop stop-color="#FFFCAB" stop-opacity="0"/>
<stop offset="1" stop-color="#0B161E"/>
</linearGradient>
<linearGradient id="paint57_linear_222_1002" x1="719.914" y1="5.60688" x2="719.914" y2="59.2859" gradientUnits="userSpaceOnUse">
<stop stop-color="#FFFCAB" stop-opacity="0"/>
<stop offset="1" stop-color="#0B161E"/>
</linearGradient>
<linearGradient id="paint58_linear_222_1002" x1="719.919" y1="3.58324" x2="719.919" y2="58.6867" gradientUnits="userSpaceOnUse">
<stop stop-color="#FFFCAB" stop-opacity="0"/>
<stop offset="1" stop-color="#0B161E"/>
</linearGradient>
<linearGradient id="paint59_linear_222_1002" x1="719.954" y1="1.68139" x2="719.954" y2="58.2482" gradientUnits="userSpaceOnUse">
<stop stop-color="#FFFCAB" stop-opacity="0"/>
<stop offset="1" stop-color="#0B161E"/>
</linearGradient>
<linearGradient id="paint60_linear_222_1002" x1="719.959" y1="0.0100825" x2="719.959" y2="57.9322" gradientUnits="userSpaceOnUse">
<stop stop-color="#FFFCAB" stop-opacity="0"/>
<stop offset="1" stop-color="#0B161E"/>
</linearGradient>
<linearGradient id="paint61_linear_222_1002" x1="719.974" y1="-1.51878" x2="719.974" y2="57.7274" gradientUnits="userSpaceOnUse">
<stop stop-color="#FFFCAB" stop-opacity="0"/>
<stop offset="1" stop-color="#0B161E"/>
</linearGradient>
<linearGradient id="paint62_linear_222_1002" x1="719.974" y1="-2.86623" x2="719.974" y2="57.6003" gradientUnits="userSpaceOnUse">
<stop stop-color="#FFFCAB" stop-opacity="0"/>
<stop offset="1" stop-color="#0B161E"/>
</linearGradient>
<linearGradient id="paint63_linear_222_1002" x1="719.979" y1="-4.02669" x2="719.979" y2="57.5592" gradientUnits="userSpaceOnUse">
<stop stop-color="#FFFCAB" stop-opacity="0"/>
<stop offset="1" stop-color="#0B161E"/>
</linearGradient>
<linearGradient id="paint64_linear_222_1002" x1="719.974" y1="-5.01271" x2="719.974" y2="57.6448" gradientUnits="userSpaceOnUse">
<stop stop-color="#FFFCAB" stop-opacity="0"/>
<stop offset="1" stop-color="#0B161E"/>
</linearGradient>
<linearGradient id="paint65_linear_222_1002" x1="719.979" y1="-5.78568" x2="719.979" y2="57.6787" gradientUnits="userSpaceOnUse">
<stop stop-color="#FFFCAB" stop-opacity="0"/>
<stop offset="1" stop-color="#0B161E"/>
</linearGradient>
<linearGradient id="paint66_linear_222_1002" x1="719.979" y1="-6.35215" x2="719.979" y2="57.812" gradientUnits="userSpaceOnUse">
<stop stop-color="#FFFCAB" stop-opacity="0"/>
<stop offset="1" stop-color="#0B161E"/>
</linearGradient>
<linearGradient id="paint67_linear_222_1002" x1="719.959" y1="-6.71079" x2="719.959" y2="57.881" gradientUnits="userSpaceOnUse">
<stop stop-color="#FFFCAB" stop-opacity="0"/>
<stop offset="1" stop-color="#0B161E"/>
</linearGradient>
<linearGradient id="paint68_linear_222_1002" x1="719.999" y1="-6.78386" x2="719.999" y2="57.4559" gradientUnits="userSpaceOnUse">
<stop stop-color="#FFFCAB" stop-opacity="0"/>
<stop offset="1" stop-color="#0B161E"/>
</linearGradient>
</defs>
</svg>
