<svg width="42" height="42" viewBox="0 0 42 42" fill="none" xmlns="http://www.w3.org/2000/svg">
<path d="M11.55 3.15C10.7146 3.15 9.91335 3.48187 9.32261 4.07261C8.73187 4.66335 8.4 5.46457 8.4 6.3C8.4 7.13543 8.73187 7.93665 9.32261 8.52739C9.91335 9.11813 10.7146 9.45 11.55 9.45C12.3854 9.45 13.1866 9.11813 13.7774 8.52739C14.3681 7.93665 14.7 7.13543 14.7 6.3C14.7 5.46457 14.3681 4.66335 13.7774 4.07261C13.1866 3.48187 12.3854 3.15 11.55 3.15ZM5.25 6.3C5.25 4.62914 5.91375 3.02671 7.09523 1.84523C8.27671 0.663748 9.87914 0 11.55 0C13.2209 0 14.8233 0.663748 16.0048 1.84523C17.1863 3.02671 17.85 4.62914 17.85 6.3C17.85 7.97086 17.1863 9.57329 16.0048 10.7548C14.8233 11.9363 13.2209 12.6 11.55 12.6C9.87914 12.6 8.27671 11.9363 7.09523 10.7548C5.91375 9.57329 5.25 7.97086 5.25 6.3ZM3.7128 14.7C1.659 14.7 0 16.3611 0 18.4128V19.1688C0 19.6035 1.19209e-07 22.1256 1.47 24.5763C2.6208 26.4873 4.5717 28.203 7.7175 28.9716C8.14873 27.8265 8.92887 26.8458 9.9477 26.1681C6.5814 25.809 4.9896 24.3138 4.1727 22.9551C3.1563 21.2625 3.15 19.4607 3.15 19.1625V18.4128C3.15 18.102 3.402 17.85 3.7128 17.85H12.663C12.8032 16.7398 13.1637 15.6689 13.7235 14.7H3.7128ZM28.2765 14.7C28.8246 15.6492 29.1942 16.7139 29.3349 17.85H38.2872C38.598 17.85 38.85 18.102 38.85 18.4128V19.1625C38.85 19.4607 38.8437 21.2625 37.8273 22.953C37.0104 24.3138 35.4186 25.809 32.0523 26.1681C33.0603 26.8401 33.8499 27.8187 34.2825 28.9716C37.4283 28.203 39.3792 26.4873 40.5279 24.5763C42 22.1256 42 19.6056 42 19.1667V18.4107C42 16.3632 40.3389 14.7 38.2872 14.7H28.2765ZM27.3 6.3C27.3 5.46457 27.6319 4.66335 28.2226 4.07261C28.8134 3.48187 29.6146 3.15 30.45 3.15C31.2854 3.15 32.0866 3.48187 32.6774 4.07261C33.2681 4.66335 33.6 5.46457 33.6 6.3C33.6 7.13543 33.2681 7.93665 32.6774 8.52739C32.0866 9.11813 31.2854 9.45 30.45 9.45C29.6146 9.45 28.8134 9.11813 28.2226 8.52739C27.6319 7.93665 27.3 7.13543 27.3 6.3ZM30.45 0C28.7791 0 27.1767 0.663748 25.9952 1.84523C24.8137 3.02671 24.15 4.62914 24.15 6.3C24.15 7.97086 24.8137 9.57329 25.9952 10.7548C27.1767 11.9363 28.7791 12.6 30.45 12.6C32.1209 12.6 33.7233 11.9363 34.9048 10.7548C36.0863 9.57329 36.75 7.97086 36.75 6.3C36.75 4.62914 36.0863 3.02671 34.9048 1.84523C33.7233 0.663748 32.1209 0 30.45 0ZM21 15.75C20.5863 15.75 20.1767 15.8315 19.7945 15.9898C19.4124 16.1481 19.0651 16.3801 18.7726 16.6726C18.4801 16.9651 18.2481 17.3124 18.0898 17.6945C17.9315 18.0767 17.85 18.4863 17.85 18.9C17.85 19.3137 17.9315 19.7233 18.0898 20.1055C18.2481 20.4876 18.4801 20.8349 18.7726 21.1274C19.0651 21.4199 19.4124 21.6519 19.7945 21.8102C20.1767 21.9685 20.5863 22.05 21 22.05C21.8354 22.05 22.6366 21.7181 23.2274 21.1274C23.8181 20.5366 24.15 19.7354 24.15 18.9C24.15 18.0646 23.8181 17.2634 23.2274 16.6726C22.6366 16.0819 21.8354 15.75 21 15.75ZM14.7 18.9C14.7 17.2291 15.3637 15.6267 16.5452 14.4452C17.7267 13.2637 19.3291 12.6 21 12.6C22.6709 12.6 24.2733 13.2637 25.4548 14.4452C26.6363 15.6267 27.3 17.2291 27.3 18.9C27.3 20.5709 26.6363 22.1733 25.4548 23.3548C24.2733 24.5363 22.6709 25.2 21 25.2C19.3291 25.2 17.7267 24.5363 16.5452 23.3548C15.3637 22.1733 14.7 20.5709 14.7 18.9ZM9.45 31.0128C9.45 28.959 11.1111 27.3 13.1628 27.3H28.8372C30.8889 27.3 32.55 28.9611 32.55 31.0128V31.7688C32.55 32.2035 32.55 34.7256 31.08 37.1763C29.5197 39.7677 26.4873 42 21 42C15.5127 42 12.4782 39.7677 10.92 37.1763C9.45 34.7256 9.45 32.2056 9.45 31.7667V31.0128ZM13.1628 30.45C13.0139 30.4511 12.8714 30.5107 12.7661 30.6161C12.6607 30.7214 12.6011 30.8639 12.6 31.0128V31.7625C12.6 32.0607 12.6063 33.8625 13.6227 35.553C14.5593 37.1133 16.5144 38.85 21 38.85C25.4856 38.85 27.4407 37.1133 28.3773 35.553C29.3937 33.8625 29.4 32.0607 29.4 31.7625V31.0128C29.3989 30.8639 29.3393 30.7214 29.2339 30.6161C29.1286 30.5107 28.9861 30.4511 28.8372 30.45H13.1628Z" fill="black"/>
</svg>
